<svg id="Layer_1" data-name="Layer 1" xmlns="http://www.w3.org/2000/svg" width="3.6in" height="3.6in" viewBox="0 0 256 256"><title>twitter-icon-white</title><path d="M234.7,43.1a19.9,19.9,0,0,0-.4-4.2,21.3,21.3,0,0,0-21.2-17.6H42.9a22.8,22.8,0,0,0-7.7,1.4A21.3,21.3,0,0,0,21.3,43V212.8a22.5,22.5,0,0,0,.4,4.4A21.3,21.3,0,0,0,43,234.7H213a19.6,19.6,0,0,0,4.1-.4,21.3,21.3,0,0,0,17.6-21.4ZM200.2,81.4a71.9,71.9,0,0,1-11.6,11.8,2.1,2.1,0,0,0-.9,1.8,88.2,88.2,0,0,1-1,16.2,93.1,93.1,0,0,1-5.6,20.2A93.8,93.8,0,0,1,165,157.3a82.5,82.5,0,0,1-39.3,24.8,90.3,90.3,0,0,1-30.6,3.3,82.9,82.9,0,0,1-29-7.1c-4.1-1.8-8-4-12-6.1l-.4-.4c8,.2,15.9-.2,23.7-2.4A74.3,74.3,0,0,0,99,159c-14.3-.8-23.2-8.6-28.6-21.2l.2-.3,3,.7c3.5,1,6.9.4,10.3-.6a32.2,32.2,0,0,1-17.2-10.7,28.7,28.7,0,0,1-6.9-19l6.6,2.4a56.7,56.7,0,0,0,6.9,1.5l-.4-.4a43.2,43.2,0,0,1-9.8-12.2,31.1,31.1,0,0,1-3.3-15.3,24.7,24.7,0,0,1,3-11.6l.7-1.2.5-.6c16.5,19.3,37.2,30.4,63,32-.2-1-.3-1.9-.5-2.8-1.6-7-.1-13.6,3.3-19.8a29.9,29.9,0,0,1,21.1-15.3c9.4-1.7,18,.1,25.5,6.2.9.7,1.6,1.6,2.5,2.4a1.3,1.3,0,0,0,.8.3c6.3-.9,12-3.5,17.5-6.6l1.2-.8c-2.3,7.6-7.4,12.7-13.6,16.9v.3c3-.7,6-1.2,8.9-2.1s5.7-1.9,8.7-3Z" fill="#fffffe"/><path d="M198.4,66.1c-2.3,7.6-7.4,12.7-13.6,16.9v.2a88.2,88.2,0,0,0,8.9-2c2.9-.8,5.7-1.9,8.6-3l-2.2,3.2a71.9,71.9,0,0,1-11.6,11.8,2.1,2.1,0,0,0-.9,1.8,88.2,88.2,0,0,1-1,16.2,93.1,93.1,0,0,1-5.6,20.2A93.8,93.8,0,0,1,165,157.3a82.5,82.5,0,0,1-39.3,24.8,90.3,90.3,0,0,1-30.6,3.3,82.9,82.9,0,0,1-29-7.1c-4.1-1.8-8-4-12-6.1l-.4-.4c8,.2,15.9-.2,23.7-2.4A74.3,74.3,0,0,0,99,159c-14.3-.8-23.2-8.6-28.6-21.2l.2-.3,3,.7c3.5,1,6.9.4,10.3-.6a32.2,32.2,0,0,1-17.2-10.7,28.9,28.9,0,0,1-6.9-19l6.6,2.4a56.7,56.7,0,0,0,6.9,1.5l-.4-.4a43.2,43.2,0,0,1-9.8-12.2,30,30,0,0,1-3.3-15.3,24.7,24.7,0,0,1,3-11.6l.7-1.2.5-.6c16.5,19.3,37.2,30.4,63,32-.2-1-.3-1.9-.5-2.8-1.6-7-.1-13.6,3.3-19.8a29.9,29.9,0,0,1,21.1-15.3c9.4-1.7,18,.1,25.5,6.2.9.7,1.6,1.6,2.5,2.4a1.3,1.3,0,0,0,.8.3,52.3,52.3,0,0,0,17.5-6.6Z" fill="#000001"/></svg>