<svg id="Layer_1" data-name="Layer 1" xmlns="http://www.w3.org/2000/svg" width="3.6in" height="3.6in" viewBox="0 0 256 256"><title>dribbble-icon-white</title><g id="RwElL2"><path d="M126.6,20.7C68.4,21.8,20.8,69.8,20.6,128.8,20.5,190,71.8,238.1,131.3,236.9s105.9-49.6,105.6-108.4C237,67.3,185.6,19.6,126.6,20.7Zm73.9,49.7c13.6,17.2,20.6,35.8,20.9,57.4-9.2-1.1-17.7-2.7-26.4-3.1-11.4-.4-22.9.1-34.4-.1-1.7-.1-4.2-1.3-5-2.6-2.5-4.7-4.4-9.7-6.8-15.1C168.4,98.4,186.2,87.5,200.5,70.4ZM190.1,60.2c-12.7,15.7-29.3,25.6-47.8,32.9L108.2,39.6C129.6,31.2,168.8,38.7,190.1,60.2ZM90.4,45.5c11.1,17.3,22.3,34.9,34.1,53.1a360.7,360.7,0,0,1-85.6,11.7C39.3,87.7,66.7,53.1,90.4,45.5ZM36.2,126c32.4-.1,63.9-4.1,95.2-13.1l7.7,15.6c-34.3,10.8-59.4,32.5-79.2,62.3C43.7,171.9,35.7,150.9,36.2,126Zm35.7,75.6c16.7-28.7,41.9-46.4,74.4-58.3l19.6,69.4C142.9,225.9,100.5,225.3,71.9,201.6Zm109.4,3.6L163.5,140c12-4,42.7-1.9,56.7,4.1C215.7,169.8,202.5,189.9,181.3,205.2Z" fill="#fff"/><path d="M165.9,212.7c-23,13.2-65.4,12.6-94-11.1,16.7-28.7,41.9-46.4,74.4-58.3Z"/><path d="M139.1,128.5c-34.3,10.8-59.4,32.5-79.2,62.3C43.7,171.9,35.7,150.9,36.2,126c32.4-.1,63.9-4.1,95.2-13.1Z"/><path d="M124.5,98.6a360.7,360.7,0,0,1-85.6,11.7c.4-22.6,27.8-57.2,51.5-64.8C101.5,62.8,112.7,80.4,124.5,98.6Z"/><path d="M190.1,60.2c-12.7,15.7-29.3,25.6-47.8,32.9L108.2,39.6C129.6,31.2,168.8,38.7,190.1,60.2Z"/><path d="M221.4,127.8c-9.2-1.1-17.7-2.7-26.4-3.1-11.4-.4-22.9.1-34.4-.1-1.7-.1-4.2-1.3-5-2.6-2.5-4.7-4.4-9.7-6.8-15.1,19.6-8.5,37.4-19.4,51.7-36.5C214.1,87.6,221.1,106.2,221.4,127.8Z"/><path d="M220.2,144.1c-4.5,25.7-17.7,45.8-38.9,61.1L163.5,140C175.5,136,206.2,138.1,220.2,144.1Z"/></g></svg>