<svg id="Layer_1" data-name="Layer 1" xmlns="http://www.w3.org/2000/svg" width="3.6in" height="3.6in" viewBox="0 0 256 256"><title>instagram-icon-white</title><path d="M228.8,128.9V82.1a58.3,58.3,0,0,0-1.2-11.8,56.2,56.2,0,0,0-17.1-30.6,55.9,55.9,0,0,0-24-13.7,24.4,24.4,0,0,0-2.6-.6l-1.3-.3A63.8,63.8,0,0,0,171.8,24H78.3a56.7,56.7,0,0,0-10.1,1A55.4,55.4,0,0,0,36.4,42.3C26.3,53.2,20.9,66.1,20.8,80.9c-.1,31.2,0,62.4,0,93.6v1.3c.1.8.1,1.7.2,2.5s.2,2.6.4,3.8a21.7,21.7,0,0,0,.4,2.5c.2,1.4.5,2.8.8,4.1a55.4,55.4,0,0,0,7.5,17,57.1,57.1,0,0,0,6.5,8.2l1.1,1.1a62.3,62.3,0,0,0,5.5,4.9l2.3,1.8,1.2.8a48.5,48.5,0,0,0,4.9,2.9c2.1,1.1,4.2,2.1,6.4,3l2.7.9,4.1,1.1,4.2.8,4.4.6H173.8l3.9-.3,2.4-.3,1.2-.3a56,56,0,0,0,22-8.8,55,55,0,0,0,8.7-7.4l.9-.8a56.6,56.6,0,0,0,15.9-39.4C228.9,159.4,228.8,144.2,228.8,128.9ZM124.7,185.8A57.8,57.8,0,1,1,182.5,128,57.8,57.8,0,0,1,124.7,185.8ZM194,70.2a11.6,11.6,0,1,1,.3-23.1,11.6,11.6,0,1,1-.3,23.1Z" fill="#fffffe"/><path d="M124.8,70.2A57.8,57.8,0,1,0,182.5,128,57.8,57.8,0,0,0,124.8,70.2Zm-.1,92.5A34.7,34.7,0,1,1,159.5,128,34.8,34.8,0,0,1,124.7,162.7Z" fill="#000001"/><path d="M194,70.2a11.6,11.6,0,1,1,.3-23.1,11.6,11.6,0,1,1-.3,23.1Z" fill="#000001"/><path d="M90.1,128a34.7,34.7,0,1,1,34.6,34.7A34.7,34.7,0,0,1,90.1,128Z" fill="#fffffe"/></svg>